<svg xmlns="http://www.w3.org/2000/svg" version="1.1" xmlns:xlink="http://www.w3.org/1999/xlink" xmlns:svgjs="http://svgjs.dev/svgjs" width="1000" height="803" viewBox="0 0 1000 803"><g transform="matrix(1,0,0,1,0,0.2655284571491734)"><svg viewBox="0 0 448 360" data-background-color="#ffffff" preserveAspectRatio="xMidYMid meet" height="803" width="1000" xmlns="http://www.w3.org/2000/svg" xmlns:xlink="http://www.w3.org/1999/xlink"><g id="tight-bounds" transform="matrix(1,0,0,1,0,-0.11904140046539169)"><svg viewBox="0 0 448 360" height="360" width="448"><g><svg></svg></g><g><svg viewBox="0 0 448 360" height="360" width="448"><g><path transform="translate(36.9151,-7.08178) scale(0.00624,0.00624)" d="M25167 8301c221 0 400 179 400 400 0 221-179 400-400 400h-3824l-2753 2753c-156 156-409 156-566 0-156-156-156-409 0-566l2188-2188h-6475c-1847 0-3071 431-3819 1301-760 885-1068 2254-1068 4110 0 11 0 22-1 33l34 5884 2356-2356c156-156 409-156 566 0 156 156 156 409 0 566l-2915 2915c33 5746 31 11443-2 17189 4087 4041 8117 8068 12157 12154h4070c221 0 400 179 400 400 0 221-179 400-400 400h-3279l4160 4208 1-1c1313 1313 2498 2062 3660 2151 1146 87 2316-474 3622-1779l4579-4579h-3323c-221 0-400-179-400-400 0-221 179-400 400-400h4123l2666-2666c156-156 409-156 566 0 156 156 156 409 0 566l-2101 2101h6475c1847 0 3071-431 3819-1301 760-885 1068-2254 1068-4110h2l-34-5917-2568 2568c-156 156-409 156-566 0-156-156-156-409 0-566l3127-3127c-33-5746-31-11443 2-17189-4087-4041-8117-8068-12157-12154h-4193c-221 0-400-179-400-400 0-221 179-400 400-400h3402l-4141-4189c-7-6-13-12-20-18-1313-1313-2498-2062-3660-2151-1146-87-2316 474-3622 1779l-4579 4579h3024zM13737 8301h7275l5144-5144c1483-1483 2856-2116 4247-2010 1374 104 2719 934 4167 2382 8 8 15 15 22 23l4695 4749h6977c2096 0 3515 524 4425 1583 898 1045 1261 2582 1261 4629 0 13-1 25-2 37l-36 6373 4559 4508 1-1c1448 1448 2278 2792 2382 4167 106 1391-528 2764-2010 4247l-4934 4934 38 6710h2c0 2047-364 3584-1261 4629-910 1059-2329 1583-4425 1583h-7275l-5144 5144c-1483 1483-2856 2116-4247 2010-1374-104-2719-934-4167-2382l1-1-4718-4772h-6977c-2096 0-3515-524-4425-1583-898-1045-1261-2582-1261-4629h2l37-6410-4537-4485c-8-7-16-14-23-22-1448-1448-2278-2792-2382-4167-106-1391 528-2764 2010-4247l4934-4934-38-6672c-1-12-2-25-2-37 0-2047 364-3584 1261-4629 910-1059 2329-1583 4425-1583zM8141 30000l-44-7653-4374 4374c-1305 1305-1866 2476-1779 3622 88 1162 838 2348 2151 3660 6 6 13 13 18 20l3983 3937 45-7961zM8882 39860l-32 5627h2c0 1857 308 3226 1068 4110 748 871 1972 1301 3819 1301h6186l-5380-5442-5662-5597zM46264 9101h-6186l5380 5442 5662 5597 32-5594c-1-11-1-22-1-33 0-1857-308-3226-1068-4110-748-871-1972-1301-3819-1301zM51906 22039l-45 7961 44 7653 4374-4374c1305-1305 1866-2476 1779-3622-88-1163-838-2348-2151-3660l1-1-4002-3956z" fill="#ef86c1" fill-rule="nonzero" stroke="none" stroke-width="1" stroke-linecap="butt" stroke-linejoin="miter" stroke-miterlimit="10" stroke-dasharray="" stroke-dashoffset="0" font-family="none" font-weight="none" font-size="none" text-anchor="none" style="mix-blend-mode: normal" data-fill-palette-color="tertiary"></path></g><g transform="matrix(1,0,0,1,112,140.23953572058815)"><svg viewBox="0 0 224 79.52092855882367" height="79.52092855882367" width="224"><g><svg viewBox="0 0 224 79.52092855882367" height="79.52092855882367" width="224"><g><svg viewBox="0 0 361.5289308408806 128.34426911314986" height="79.52092855882367" width="224"><g transform="matrix(1,0,0,1,137.5289308408806,17.737883792048933)"><svg viewBox="0 0 224 92.868501529052" height="92.868501529052" width="224"><g id="textblocktransform"><svg viewBox="0 0 224 92.868501529052" height="92.868501529052" width="224" id="textblock"><g><svg viewBox="0 0 224 92.868501529052" height="92.868501529052" width="224"><g transform="matrix(1,0,0,1,0,0)"><svg width="224" viewBox="-1.5 -39.5 115.45 48.45" height="92.868501529052" data-palette-color="#ef86c1"><path d="M14.25-15.15L14.25-15.15 14.25-13.6 33.75-13.6 33.75-15.15Q33.75-16.5 33.52-17.65 33.3-18.8 32.95-19.8L32.95-19.8 29.5-27.95Q28.95-29.25 28.35-30.13 27.75-31 26.35-31L26.35-31 21.45-31Q19.95-31 19.35-30.13 18.75-29.25 18.25-28L18.25-28 15.05-19.8Q14.7-18.8 14.48-17.65 14.25-16.5 14.25-15.15ZM19.9-17.9L22.25-25.5Q22.45-25.95 22.68-26.15 22.9-26.35 23.2-26.35L23.2-26.35 24.45-26.35Q24.75-26.35 24.98-26.15 25.2-25.95 25.4-25.5L25.4-25.5 27.75-17.9 19.9-17.9ZM34.25-4.5L33.75-4.5 33.75-13.1 14.25-13.1 14.25-4.5 13.75-4.5 13.75-15.15Q13.75-16.55 13.98-17.73 14.2-18.9 14.6-20L14.6-20 17.8-28.2Q18.35-29.6 19.05-30.55 19.75-31.5 21.45-31.5L21.45-31.5 26.35-31.5Q28-31.5 28.68-30.55 29.35-29.6 29.95-28.15L29.95-28.15 33.4-20Q33.8-18.9 34.02-17.73 34.25-16.55 34.25-15.15L34.25-15.15 34.25-4.5ZM19.4-1.8L19.4-1.8 19.4-8.8 28.25-8.8 28.25-1.8Q28.25-0.85 28.73-0.43 29.2 0 30.2 0L30.2 0 37.75 0Q38.7 0 39.13-0.43 39.55-0.85 39.55-1.8L39.55-1.8 39.55-15Q39.55-16.5 39.08-18.45 38.6-20.4 37.6-23L37.6-23 33.25-34.35Q32.95-35.2 32.33-35.6 31.7-36 30.75-36L30.75-36 17.3-36Q16.3-36 15.68-35.6 15.05-35.2 14.75-34.35L14.75-34.35 10.4-23Q9.4-20.4 8.93-18.45 8.45-16.5 8.45-15L8.45-15 8.45-1.8Q8.45-0.85 8.88-0.43 9.3 0 10.25 0L10.25 0 17.6 0Q18.55 0 18.98-0.43 19.4-0.85 19.4-1.8ZM19.2 0.05L12.7 5.45Q12.5 5.65 12.08 5.8 11.65 5.95 11.15 5.95L11.15 5.95 3.8 5.95Q2.6 5.95 2.05 5.4 1.5 4.85 1.5 3.65L1.5 3.65 1.5-9.55Q1.5-11.1 1.98-13.08 2.45-15.05 3.5-17.75L3.5-17.75 7.8-29.05Q7.95-29.5 8.18-29.83 8.4-30.15 8.65-30.4L8.65-30.4 8.7-30.45 15.1-35.8Q15.5-36.15 16.05-36.33 16.6-36.5 17.3-36.5L17.3-36.5 30.75-36.5Q31.9-36.5 32.63-36.02 33.35-35.55 33.7-34.55L33.7-34.55 38.05-23.2Q39.1-20.5 39.58-18.53 40.05-16.55 40.05-15L40.05-15 40.05-1.8Q40.05-1.15 39.88-0.7 39.7-0.25 39.35 0.05L39.35 0.05 32.85 5.45Q32.65 5.65 32.23 5.8 31.8 5.95 31.3 5.95L31.3 5.95 23.75 5.95Q22.5 5.95 21.9 5.38 21.3 4.8 21.3 3.65L21.3 3.65 21.3-2.85 19.9-2.85 19.9-1.8Q19.9-1.15 19.73-0.7 19.55-0.25 19.2 0.05L19.2 0.05ZM55.45 5.95L55.45 5.95 45.35 5.95Q44.15 5.95 43.6 5.4 43.05 4.85 43.05 3.65L43.05 3.65 43.05-6.5Q43.05-7.15 43.22-7.63 43.4-8.1 43.7-8.35L43.7-8.35 50.2-13.8Q50.45-14 50.85-14.13 51.25-14.25 51.8-14.25L51.8-14.25 61.9-14.25Q63.1-14.25 63.65-13.73 64.2-13.2 64.2-11.95L64.2-11.95 64.2-1.8Q64.2-1.15 64.02-0.7 63.85-0.25 63.5 0.05L63.5 0.05 57 5.45Q56.8 5.65 56.37 5.8 55.95 5.95 55.45 5.95ZM51.8 0L61.9 0Q62.85 0 63.27-0.43 63.7-0.85 63.7-1.8L63.7-1.8 63.7-11.95Q63.7-12.9 63.27-13.33 62.85-13.75 61.9-13.75L61.9-13.75 51.8-13.75Q50.85-13.75 50.42-13.33 50-12.9 50-11.95L50-11.95 50-1.8Q50-0.85 50.42-0.43 50.85 0 51.8 0L51.8 0ZM57.1-4.5L56.6-4.5 56.6-9.25 57.1-9.25 57.1-4.5ZM92.5-19.25L92.5-19.25Q93.4-19.25 93.8-19.65 94.2-20.05 95.05-21.35L95.05-21.35 101.15-30.65Q101.45-31.15 101.82-31.33 102.2-31.5 102.59-31.5L102.59-31.5 103.45-31.5Q104.15-31.5 104.47-31.13 104.8-30.75 104.8-29.95L104.8-29.95 104.8-4.5 104.3-4.5 104.3-29.95Q104.3-30.35 104.12-30.68 103.95-31 103.45-31L103.45-31 102.7-31Q102.34-31 102.09-30.9 101.84-30.8 101.55-30.3L101.55-30.3 95.45-21.1Q94.55-19.75 94.07-19.25 93.6-18.75 92.5-18.75L92.5-18.75Q91.4-18.75 90.92-19.25 90.45-19.75 89.55-21.1L89.55-21.1 83.45-30.3Q83.15-30.8 82.87-30.9 82.6-31 82.25-31L82.25-31 81.5-31Q81-31 80.85-30.68 80.7-30.35 80.7-29.95L80.7-29.95 80.7-4.5 80.2-4.5 80.2-29.95Q80.2-30.75 80.52-31.13 80.85-31.5 81.5-31.5L81.5-31.5 82.35-31.5Q82.75-31.5 83.15-31.33 83.55-31.15 83.85-30.65L83.85-30.65 89.95-21.35Q90.8-20.05 91.2-19.65 91.6-19.25 92.5-19.25ZM76.7 0L84.15 0Q85.1 0 85.52-0.43 85.95-0.85 85.95-1.8L85.95-1.8 85.95-19.4 88.9-13.95Q89.35-13.1 89.97-12.73 90.6-12.35 91.55-12.35L91.55-12.35 93.55-12.35Q94.5-12.35 95.12-12.73 95.75-13.1 96.2-13.95L96.2-13.95 99.15-19.4 99.15-1.8Q99.15-0.85 99.57-0.43 100 0 100.95 0L100.95 0 108.65 0Q109.6 0 110.02-0.43 110.45-0.85 110.45-1.8L110.45-1.8 110.45-34.2Q110.45-35.15 110.02-35.58 109.6-36 108.65-36L108.65-36 100.55-36Q99.75-36 99.22-35.65 98.7-35.3 98.25-34.5L98.25-34.5 93.8-26.35Q93.55-25.9 93.37-25.7 93.2-25.5 92.9-25.5L92.9-25.5 92.45-25.5Q92.15-25.5 91.97-25.7 91.8-25.9 91.55-26.35L91.55-26.35 87.05-34.5Q86.6-35.3 86.07-35.65 85.55-36 84.75-36L84.75-36 76.7-36Q75.75-36 75.32-35.58 74.9-35.15 74.9-34.2L74.9-34.2 74.9-1.8Q74.9-0.85 75.32-0.43 75.75 0 76.7 0L76.7 0ZM85.75 0.05L85.75 0.05 79.25 5.45Q79.05 5.65 78.62 5.8 78.2 5.95 77.7 5.95L77.7 5.95 70.25 5.95Q69.05 5.95 68.5 5.4 67.95 4.85 67.95 3.65L67.95 3.65 67.95-28.75Q67.95-29.4 68.12-29.85 68.3-30.3 68.65-30.6L68.65-30.6 75.1-36.05Q75.35-36.25 75.77-36.38 76.2-36.5 76.7-36.5L76.7-36.5 84.75-36.5Q85.7-36.5 86.32-36.1 86.95-35.7 87.5-34.75L87.5-34.75 90.9-28.5 91.35-29.3Q91.55-29.65 91.77-29.98 92-30.3 92.25-30.5L92.25-30.5 98.7-35.9Q99.09-36.2 99.52-36.35 99.95-36.5 100.55-36.5L100.55-36.5 108.65-36.5Q109.85-36.5 110.4-35.95 110.95-35.4 110.95-34.2L110.95-34.2 110.95-1.8Q110.95-1.15 110.77-0.7 110.6-0.25 110.25 0.05L110.25 0.05 103.75 5.45Q103.55 5.65 103.12 5.8 102.7 5.95 102.2 5.95L102.2 5.95 94.5 5.95Q93.25 5.95 92.72 5.4 92.2 4.85 92.2 3.65L92.2 3.65 92.2-9.55 89.25-7.1Q88.85-6.75 88.32-6.58 87.8-6.4 87.1-6.4L87.1-6.4 86.45-6.4 86.45-1.8Q86.45-1.15 86.27-0.7 86.1-0.25 85.75 0.05Z" opacity="1" transform="matrix(1,0,0,1,0,0)" fill="#ef86c1" class="undefined-text-0" data-fill-palette-color="primary" id="text-0"></path></svg></g></svg></g></svg></g></svg></g><g><svg viewBox="0 0 125.4051900702384 128.34426911314986" height="128.34426911314986" width="125.4051900702384"><g><svg xmlns="http://www.w3.org/2000/svg" xmlns:xlink="http://www.w3.org/1999/xlink" version="1.1" x="0" y="0" viewBox="10.201544470442567 9.698835928524645 99.83932900506775 102.17922960545586" style="enable-background:new 0 0 120 120;" xml:space="preserve" height="128.34426911314986" width="125.4051900702384" class="icon-icon-0" data-fill-palette-color="accent" id="icon-0"><g fill="#d498ca" data-fill-palette-color="accent"><path d="M18.2 63.9c-3.3 3.2-5.5 9.1-1.9 12.9 0.3 0.3 0.8-0.1 0.6-0.5-2-4.2-1.5-8.5 1.6-12.1C18.8 64 18.5 63.7 18.2 63.9z" fill="#d498ca" data-fill-palette-color="accent"></path><path d="M27.6 94.3c-0.9-1.8-2-3.3-2.4-5.2-0.6-2.5 0.7-5.1 2.2-7 0.1-0.1 0-0.2-0.1-0.1-3.8 3.4-4.1 9.2-0.2 12.8C27.4 95 27.8 94.6 27.6 94.3z" fill="#d498ca" data-fill-palette-color="accent"></path><path d="M47 105.5c0.3 0 0.5-0.4 0.2-0.6-0.6-0.7-1.5-0.9-2.3-1.3-0.9-0.5-1.7-1.1-2.4-1.8-1.5-1.4-2.2-3.5-2.4-5.6 0-0.4-0.6-0.4-0.6 0-0.1 2.1 0.3 4 1.7 5.7C42.4 103.4 44.9 105.6 47 105.5z" fill="#d498ca" data-fill-palette-color="accent"></path><path d="M105.6 79.1c-0.1 0.1-0.3 0.3-0.4 0.4 0.3-0.7 0.6-1.5 0.8-2.2 3-8.6 4.7-18.2 3.8-27.3-1-9.2-4.6-17.9-10.5-24.9-12.2-14.5-33.5-18.5-51-13.1-7.4 2.2-14.1 6.1-19.8 11.2-0.3-0.1-0.7-0.2-1-0.3-0.3-0.1-0.4 0.3-0.2 0.4 0.2 0.1 0.5 0.2 0.7 0.3-6.7 6.1-11.9 13.7-15 22.3-2.5 6.8-3.3 14.3-2.5 21.5-0.1 1.5 0 2.9 0.6 4 0 0 0 0 0 0 1.7 8.8 5.7 17.1 12 23.5 6.3 6.5 14.9 10.9 23.4 13.8 8.5 2.9 18 4.3 26.9 2.1 2.1-0.5 4.2-1.4 6.1-2.5 0.4 0 0.7-0.2 1-0.7 2.3-4.1 1.8-9.6-0.3-13.7-0.3-0.6-1-0.6-1.4-0.2-0.3-0.6-0.9-0.9-1.6-0.7-7.8 3.2-15.6 4.4-23.9 2.1-7.6-2.1-14.2-6.8-19.4-12.6-10-11.2-14.5-28.4-5.8-41.7 6.2-9.5 16.9-14.6 28-15.7 0.1 0 0.2 0 0.3 0 5.2-0.4 10.4 0 15.2 1.4 0.6 0.2 1.2 0.4 1.8 0.6 0.2 0.2 0.4 0.2 0.6 0.2 13.4 4.6 24.5 15.4 24.6 30.4 0.1 6.6-2.3 13-5.5 18.6-0.1 0.2-0.1 0.4 0 0.5-1.7 0.4-3.4 0.3-5.1 0.6-0.1 0-0.3 0.1-0.4 0.2-0.1-0.2-0.3-0.4-0.4-0.5 0-0.1 0.1-0.2 0.1-0.3 0.2-0.6-0.2-1-0.7-1.1-0.4-1.1-0.6-2.3-0.7-3.3-0.7-4.5-0.4-9-0.3-13.5 0-3.5 1.6-7 2.2-10.4 0.7-3.5 0.3-6.6-1.5-9.7-1.1-1.9-2.9-3.6-5.2-3.1-2.5 0.5-3.5 3.9-4 6.1-10-10.9-28.2-10.8-37.8 0.8C28.3 55.8 33.9 75 46.5 84.6c4.2 3.2 9.4 5.1 14.7 4.3 5.1-0.7 8.9-4.3 11.6-8.5C74.1 88 80.3 94 88.5 93.7c7.9-0.3 12.9-5.9 16-12.4 0.6-0.5 1.2-1.1 1.7-1.8C106.3 79.2 105.9 78.8 105.6 79.1zM19.5 55.6c-0.5 15.4 9.3 30.2 22 38.1 10.8 6.7 25.1 8.3 36.4 2 0.1-0.1 0.2-0.1 0.3-0.2 0.4 1.6 0.8 3.2 0.8 4.9 0 2.1-0.7 3.9-1.2 5.8-0.4 0.2-0.8 0.4-1.2 0.6-0.1-0.1-0.2-0.2-0.4-0.2-2.3 0.4-3.9-1-4.1-3.2 0-0.4-0.6-0.4-0.6 0-0.1 1.3 0.3 2.7 1.3 3.6 0.5 0.4 1.1 0.6 1.7 0.6-0.8 0.3-1.6 0.6-2.5 0.8 0 0-0.1 0-0.1-0.1-0.8-0.3-1.6-0.3-2.4-0.4-0.9-0.2-1.9-0.5-2.7-0.9-1.6-0.8-2.8-2.3-3.7-3.8-0.2-0.3-0.5 0-0.4 0.2 0.8 1.8 1.9 3.3 3.6 4.5 0.6 0.4 1.5 0.8 2.4 1.1-1.9 0.3-3.9 0.3-5.9 0.3-2.9-1.2-5.1-3.2-6.8-6.1-0.2-0.4-0.7 0-0.5 0.3 1.1 2.3 2.6 4.2 4.5 5.6-1.8-0.2-3.7-0.5-5.5-0.8-0.6-0.4-1.2-0.8-1.8-1.2-1.8-1.4-3.2-3.3-3.8-5.6-0.1-0.3-0.6-0.2-0.5 0.1 0.4 2.3 1.4 4.3 3.1 6-5.2-1.3-10.3-3.2-15-5.8 0.1-0.1 0.1-0.4 0-0.5-1.5-1.6-3.2-2.5-4.4-4.5-1-1.8-1.2-4-1-6 0-0.3-0.5-0.4-0.5-0.1-0.7 2.8-0.1 6.2 1.8 8.5-2.1-1.4-4-2.8-5.9-4.4-1.4-1.2-2.7-2.6-3.9-4 0.3 0.1 0.7 0.2 1 0.3 0.3 0.1 0.5-0.4 0.2-0.6-2.9-1.9-4.6-4-4.6-7.6 0-2.9 1.1-5.8 2.7-8.2 0.1-0.1-0.1-0.2-0.2-0.1-2.2 2.6-3.6 5.8-3.6 9.3 0 0.2 0 0.4 0 0.5-2.4-4.3-4-9-5-13.7-0.6-2.8-0.9-5.6-0.9-8.4 0.9-2.6 2.5-4.9 4.4-6.9 0.4-0.4-0.2-1-0.6-0.6-1.5 1.6-2.8 3.3-3.8 5.1 0.2-5.1 1.4-10.2 3.2-15 0.1-0.3 0.3-0.7 0.4-1 1.8-0.9 4.9-1 5.8-1 0.4 0 0.4-0.6 0-0.5-1 0-3.8 0.3-5.7 1.2 1.4-3.4 3.2-6.5 5.3-9.5 2.4 0.1 4.7 0.2 7.1 0.3C23.3 40.1 19.8 47.3 19.5 55.6zM30 33.1c-2.6 0-5.2 0.2-7.9 0.3 2.4-3.2 5.2-6.2 8.2-8.8 2.7 1 5.4 1.7 8.2 2.3C35.4 28.5 32.5 30.6 30 33.1zM49.5 22.6c-3 0.7-5.9 1.7-8.6 3-3.2-0.6-6.5-1.1-9.7-1.8 3.7-3 7.8-5.5 12.1-7.5 1.5 1.9 3.4 3.4 5.4 4.7 0.6 0.4 1.3 0.9 2 1.3C50.3 22.5 49.9 22.6 49.5 22.6zM65.2 21.9c-0.9-1.5-2.5-2.8-3.7-4-1.6-1.5-3.3-3.1-5.3-4.1-0.4-0.2-0.9 0.3-0.5 0.7 1.5 1.4 3 2.7 4.4 4.2 0.9 0.9 1.6 2 2.4 3-3.1-0.2-6.3-0.1-9.4 0.4-0.8-0.5-1.7-0.9-2.5-1.4-2.3-1.3-4.7-2.7-6.5-4.6 3.4-1.4 6.9-2.6 10.5-3.3 3.9-0.8 7.9-1 11.9-0.8-0.2 0.1-0.3 0.3-0.1 0.5 2.5 3.4 4.5 6.9 5.8 10.8C69.8 22.6 67.5 22.2 65.2 21.9zM82 27.5c-2.6-1.5-5.3-2.7-8.1-3.7-1.3-4.4-4-8.3-7-11.8 0 0 0 0 0 0 4.2 0.3 8.3 1.1 12.3 2.4 0.7 2.4 1.4 4.8 2 7.3 0.4 1.6 0.7 3.1 0.8 4.7C82 26.8 82 27.2 82 27.5zM94.3 38.7c2-2.8 2.1-7.2 1.2-10.4-0.1-0.4-0.7-0.2-0.7 0.2 0.3 2 0 3.9-0.4 5.8-0.2 1.1-0.7 2.1-1.1 3.1-0.6-0.8-1.3-1.6-2-2.4-0.3-0.4-0.7-0.7-1-1.1 0.8-0.9 0.2-3.7 0.1-4.5-0.3-2.8-0.6-5.9-2.1-8.4-0.2-0.4-0.9-0.1-0.7 0.3 0.9 2.7 1 5.7 1.2 8.5 0 0.5-0.1 1.7 0.1 2.7-1.6-1.5-3.3-2.8-5.2-4 0.3-2.2-0.4-4.8-0.9-6.6-0.7-2.7-2.2-5-3.5-7.5 1.3 0.4 2.6 0.9 3.8 1.4 9.1 3.9 16.2 11.1 20.5 20 1.5 3.1 2.5 6.3 3.2 9.5-2.2 3.5-4.1 7.2-6.5 10.5 0-0.7-0.1-1.5-0.1-2.3-0.2-1.8-0.5-3.6-1-5.3 1.5-0.7 2.2-2.6 2.8-4 0.9-2.2 0.9-4.7 0.8-7 0-0.5-0.7-0.5-0.8 0-0.2 2.1-0.5 4.1-1.2 6.1-0.4 1.3-1.4 2.4-2.1 3.5C97.6 44 96.1 41.2 94.3 38.7zM100.3 57.7c0.3 0.1 0.7 0 0.9-0.3 2.4-3.4 4.3-7 5.9-10.8 0.6 3.4 0.8 6.9 0.7 10.3-0.1-0.1-0.2-0.1-0.3 0-1.7 5.1-5.5 9.5-9.9 12.6C99.2 65.8 100.1 61.8 100.3 57.7zM96.5 72.1c0.3 0.2 0.6 0.2 0.9-0.1 4.9-3.4 9.7-8.3 10.3-14.4-0.2 4.6-1 9.3-2.2 13.8-2.4 1.6-5.2 2.8-7.8 3.9-1.2 0.5-2.4 0.9-3.6 1.2C95 75.1 95.8 73.6 96.5 72.1zM88.5 91.5c-8.3 0.7-14.1-7.2-13.6-14.9 0.1-1.1-1.6-1.5-2.1-0.6-0.7 1.4-1.5 2.8-2.4 4.1 0-1 0.1-2.1 0.3-3.1 0.3-1.4 1.4-2.5 1.7-3.9 0-0.3-0.3-0.6-0.6-0.4-1.3 0.8-1.8 2.7-2.2 4.1-0.4 1.5-0.3 3 0 4.4-1.3 1.6-2.8 3.1-4.7 4.1 0-1.5 0.2-3.1 0.6-4.4 0.5-2.2 2-4 3.2-5.9 0.2-0.3-0.2-0.7-0.5-0.5-1.9 1.4-2.9 3.2-3.7 5.4-0.7 2-0.7 3.8-0.3 5.7-0.1 0.1-0.2 0.1-0.4 0.2C62 86.7 60 87 58 86.9c-0.2-1.2-0.1-2.3 0.2-3.6 0.3-1.2 1.3-2 1.6-3.1 0.1-0.3-0.2-0.5-0.4-0.4-1.2 0.3-1.7 1.7-2.2 2.8-0.6 1.3-0.5 2.9-0.1 4.2-1.2-0.1-2.5-0.4-3.6-0.8-7.6-2.6-13.4-10-16.2-17.2-3-7.9-2.1-17.1 3-24 4.5-6.2 12.4-9.3 19.9-9.1 6.1 0.2 12.1 2.8 16.6 6.8 0 0 0 0.1 0 0.1-0.2 0.7 0.9 1 1.1 0.3 0.8-3 3.2-8.2 6.3-4 2.5 3.3 2.2 7.3 1.3 11.1-0.7 3-1.9 5.9-1.9 9 0 1.9-0.1 3.9-0.1 5.8 0 2 0 4.1 0.2 6.2-2 0.8-3.7 3.1-4.8 4.9-1.4 2.4-2 5.1-1.8 7.8 0 0.4 0.6 0.4 0.6 0 0.2-2.6 0.9-5 2.3-7.2 1-1.7 2.5-2.7 3.9-3.9 0.2 1.5 0.6 2.9 1.1 4.3-1.5 2.5-2.5 5.9-2.6 8.6-0.2 2.8 1.3 4.8 3.9 5.8 0.5 0.2 0.8-0.6 0.4-0.9-4.3-3.2-1.9-7.4-0.2-11.3 0.2 0.2 0.4 0.4 0.6 0.6-0.1 0.4-0.1 0.8 0.2 1.3 3.6 4.6 8.8 4.9 13.3 2.9C97.8 88 93.9 91.1 88.5 91.5zM103.5 77.7c-0.5 1.4-1.1 2.8-1.8 4.1-3.8 1.7-8.5 1.8-11.5-1.1 1.4-0.1 2.7-0.7 3.7-2.1 1.4-0.4 2.7-0.9 3.9-1.5 3-1.3 5.4-3.4 7.7-5.6C104.9 73.7 104.3 75.7 103.5 77.7z" fill="#d498ca" data-fill-palette-color="accent"></path><path d="M83.1 64.5c0.4-0.5-0.1-1.4-0.7-0.9-2.4 1.8-4.6 3.7-7.1 5.4-0.5 0.4 0 1.2 0.5 0.9C78.2 68.3 81.3 66.8 83.1 64.5z" fill="#d498ca" data-fill-palette-color="accent"></path><path d="M75.8 61c1.5-1 2.7-2.4 3.8-3.8 0.7-0.9 1.3-1.8 2-2.7 0.6-0.8 1.4-1.7 1.6-2.7 0.1-0.4-0.4-0.9-0.8-0.6-1.3 0.8-2.1 2.8-2.9 4-1.1 1.6-2.2 3.2-3.7 4.5 0.2-2.4-0.1-4.8-1.4-6.6-0.1-0.1-0.2-0.2-0.3-0.3-0.1-0.5-0.3-1-0.5-1.5-0.4-1-1-2-1.6-2.8 0.1 0 0.3-0.1 0.4-0.2 0.5-0.8 0.3-1.9 0.2-2.7-0.1-1.5-0.1-3.1-0.2-4.6 0-0.6-0.8-0.6-0.9 0-0.1 1.4-0.1 2.8-0.2 4.1 0 0.8-0.3 1.9 0 2.8-0.4-0.4-0.8-0.8-1.2-1.1 0.2 0 0.4-0.1 0.4-0.3 1.1-3.6-1.9-7.6-4.7-9.5-0.5-0.3-0.9 0.5-0.5 0.8 1.2 0.9 2.2 2 3 3.3 0.9 1.7 0.7 3.5 1.3 5.2-1.7-1.3-3.8-2.2-5.8-2.8 0 0-0.1 0-0.1 0-0.8-1.5-2.1-2.9-3.4-3.8-0.7-0.5-1.4-0.8-2.2-1.1-0.7-0.2-1.6 0.1-2.3 0.2-0.3 0-0.3 0.6 0 0.7 0.7 0.1 0.9 0.5 1.5 0.7 0.8 0.3 1.5 0.7 2.1 1.3 0.5 0.5 0.9 1 1.3 1.5-3.2-0.2-6.5 0.3-9.3 1.8-1.9-1-3.9-2-6-2.6-0.7-0.2-0.9 0.8-0.3 1.1 1.7 0.7 3.1 1.6 4.7 2.5-3.1 2.1-5.1 5.2-6.2 8.7-0.2 0-0.3 0-0.5 0.1-1.3 0.9-2.4 1.9-3.6 2.9-1.1 0.9-2.1 2.1-3.3 2.9-0.2 0.1-0.1 0.5 0.2 0.4 2.6-1 4.6-3 6.8-4.5-0.1 0.7-0.3 1.5-0.3 2.2-0.1 1.7-0.1 3.5 0.1 5.3-0.9 0.9-1.6 1.9-2.5 2.8-0.8 1-1.4 2.1-2.4 2.9-0.1 0 0 0.2 0.1 0.1 2.2-0.8 3.5-2.5 5-4.1 0.3 2 0.9 3.9 1.7 5.7-0.1 0.2-0.3 0.5-0.4 0.7-0.9 1.5-1.4 3.1-1.5 4.9 0 0.7 1 0.6 1 0 0.1-1.5 0.7-2.9 1.5-4.2 0.6 1.2 1.4 2.4 2.3 3.4 1.2 1.3 2.6 2.2 4.1 2.8-0.3 1.2-0.3 2.6 0.2 3.5 0.2 0.5 0.9 0.1 0.7-0.4-0.4-0.9-0.3-1.9 0-2.8 2.5 0.7 5.2 0.7 7.8-0.1 5-1.5 9.2-5.3 11.9-9.6 1.3-2.1 2.7-5.1 3.2-8.2C75.7 61.1 75.7 61 75.8 61zM70.4 66c0.8-1.1 1.5-2.2 2.1-3.4-0.1 0.3-0.2 0.7-0.3 1-1 3.2-2.9 6-5.3 8.4-3.2 3.2-8.1 5.8-12.6 4.9 0 0 0 0 0.1-0.1 0.2-0.2 0-0.6-0.3-0.5-0.3 0.1-0.6 0.2-0.8 0.3-0.7-0.2-1.3-0.5-1.9-0.9-1.9-1.2-3.3-3-4.4-5.2 0.2-0.3 0.4-0.7 0.4-1.1 0-0.2-0.2-0.4-0.4-0.4-0.2 0-0.4 0.1-0.6 0.2-1.6-4.3-1.7-9.6-0.9-13.4 0.8-3.9 3.1-7 6.3-8.9 0 0 0.1 0 0.1 0.1 0.7 0.3 1.2-0.2 1.2-0.8 0.7-0.3 1.4-0.6 2.1-0.8 2.1-0.6 4.5-0.7 6.7-0.4 0.1 0.1 0.1 0.2 0.2 0.3 0.4 0.5 1 0.4 1.4 0 2.4 0.6 4.6 1.7 6.3 3.4 1.6 1.6 2.6 3.4 2.9 5.3-0.1 1.3 0 2.6 0.1 3.8-0.4 2.8-1.6 5.6-3.1 8C69.8 66 70.2 66.2 70.4 66z" fill="#d498ca" data-fill-palette-color="accent"></path><path d="M75.6 51.7c2.2-1.5 3.6-3.6 5.2-5.8 1-1.4 2.7-3.3 2.3-5.2-0.1-0.4-0.6-0.4-0.8-0.1-0.2 0.5-0.7 0.8-1 1.3-0.7 1-1.2 2.2-1.8 3.2-1.3 2.1-2.7 4.3-4 6.3C75.4 51.6 75.5 51.8 75.6 51.7z" fill="#d498ca" data-fill-palette-color="accent"></path><path d="M37.7 51.2c2.7 1.2 6-0.9 8-2.7 0.7-0.6-0.4-1.7-1-1-1.5 1.4-4.3 3.5-6.5 2.6C37.5 49.8 37.1 51 37.7 51.2z" fill="#d498ca" data-fill-palette-color="accent"></path></g></svg></g></svg></g></svg></g></svg></g></svg></g></svg></g><defs></defs></svg><rect width="448" height="360" fill="none" stroke="none" visibility="hidden"></rect></g></svg></g></svg>